<svg version="1.1" id="logo_inverse" xmlns="http://www.w3.org/2000/svg" xmlns:xlink="http://www.w3.org/1999/xlink" x="0px"
  y="0px" viewBox="0 0 256 224" style="enable-background:new 0 0 256 224;" width="100%" height="100%" xml:space="preserve">
<path class="fill-with-bg" d="M0,0v224h256V0H0z M198.9,89.6L184,134.4l-7.5,22.4l-14.9,44.8h-22.4h-22.4l0,0l14.9-44.8l7.5-22.4l0,0l0,0
  h-22.4h-14.9l-7.5,22.4H49.6l7.5-22.4L72,89.6l7.5-22.4l14.9-44.8h22.4h22.4l0,0l0,0l-14.9,44.8l-7.5,22.4l0,0l0,0h22.4h14.9
  l7.5-22.4h44.8L198.9,89.6z"/>
</svg>